<?xml version="1.0" encoding="UTF-8" standalone="no"?><!DOCTYPE svg PUBLIC "-//W3C//DTD SVG 1.1//EN" "http://www.w3.org/Graphics/SVG/1.1/DTD/svg11.dtd"><svg width="100%" height="100%" viewBox="0 0 350 110" version="1.1" xmlns="http://www.w3.org/2000/svg" xmlns:xlink="http://www.w3.org/1999/xlink" xml:space="preserve" xmlns:serif="http://www.serif.com/" style="fill-rule:evenodd;clip-rule:evenodd;stroke-linejoin:round;stroke-miterlimit:2;"><path d="M87.87,101.477l23.296,0l26.32,-92.4l-23.296,0l-15.792,63.392l-0.56,0l-16.8,-63.392l-15.904,0l-16.8,63.392l-0.56,0l-15.792,-63.392l-23.408,0l26.32,92.4l23.408,0l14.784,-51.856l14.784,51.856Z" style="fill:#c1d3dd;fill-rule:nonzero;"/><path d="M134.798,55.221c0,26.992 19.264,47.936 46.592,47.936c26.544,0 46.48,-20.944 46.48,-47.936c0,-26.992 -20.832,-47.824 -46.48,-47.824c-25.424,0 -46.592,20.832 -46.592,47.824Zm22.736,0c0,-13.776 7.616,-27.552 23.856,-27.552c16.352,0 23.744,13.776 23.744,27.552c0,13.776 -6.944,27.552 -23.744,27.552c-17.248,0 -23.856,-13.776 -23.856,-27.552Z" style="fill:#c1d3dd;fill-rule:nonzero;"/><path d="M313.55,101.477l21.056,0l-8.288,-92.4l-22.4,0l-20.496,53.312l-20.496,-53.312l-22.4,0l-8.288,92.4l21.056,0l4.368,-54.768l0.56,0l18.928,54.208l12.544,0l18.928,-54.208l0.56,0l4.368,54.768Z" style="fill:#c1d3dd;fill-rule:nonzero;"/><path d="M181.254,7.033c-26.03,0 -47.125,21.64 -47.125,48.343c0,8.926 2.389,17.277 6.5,24.454l-9.219,23.093l22.891,-7.906c7.643,5.484 16.918,8.719 26.953,8.719c26.03,0 47.14,-21.656 47.14,-48.36c0,-26.703 -21.11,-48.343 -47.14,-48.343Z" style="fill:#c1d3dd;fill-rule:nonzero;"/></svg>